
<svg xmlns="http://www.w3.org/2000/svg" version="1.1" xmlns:xlink="http://www.w3.org/1999/xlink" preserveAspectRatio="none" x="0px" y="0px" width="1280px" height="720px" viewBox="0 0 1280 720">
<defs>
<g id="Layer0_0_STROKES_1_FILL">
<path fill="#FFFFFF" stroke="none" d="
M 1190.05 178.15
Q 1189.1 181.1 1190.55 183.9 1192 186.65 1194.95 187.55
L 1195 187.6 1201.75 189.9 1202.25 190.15 1204.9 191.75 1205.65 192.3 1206.8 193.45
Q 1207.25 194 1207.6 194.65 1208 195.45 1208.1 195.9
L 1208.3 196.6 1208.45 198.2 1208.3 200.05 1207.55 203.25 1205.8 207.6 1203.65 211.4 1196.75 220.15
Q 1193.4 223.75 1188.85 227.75
L 1185.4 230.5 1180.6 233.3
Q 1178 234.65 1175.75 235.5 1173.3 236.55 1170.65 237.45 1165.8 239.1 1159.9 240.65 1156.95 241.45 1154.4 242
L 1137.5 245.4
Q 1132.1 246.35 1126.05 247.2 1120.05 248.05 1114.55 248.7
L 1032.1 255.7 844.65 262.5
Q 821.2 263.45 797.5 264.6 766.15 266.15 750.45 267
L 726.9 268.3
Q 718.6 268.7 703.4 269.6 654.35 272.35 609.25 275.35 554.95 279 515.25 281.9
L 444.8 287
Q 437.45 287.45 421.35 288.4 413.1 288.85 397.85 289.65
L 315.35 293.15 303.15 294.6
Q 290.85 296.7 279.45 300.35 274.15 302.05 268 304.5
L 259.25 308.45
Q 257.6 309.4 256.15 310.55 254.65 311.75 253.35 313.2 252.2 314.4 251 316.3
L 249.2 319.65
Q 248.35 321.55 247.95 323.3 247.05 326.95 247.35 330.9
L 247.95 334.7
Q 248.45 336.7 249.15 338.3 249.75 339.75 250.8 341.65
L 252.3 343.95 252.9 344.65
Q 253.8 345.85 255.4 347.45 256.5 348.5 258.25 349.8 259.8 350.9 261.35 351.7
L 275.05 358.3
Q 277.65 359.45 280.9 360.6
L 286.45 362.15 287.3 362.3
Q 289.9 362.85 293.55 363.3 295.5 363.55 299.65 363.85 302.75 364.1 305.7 364.15
L 341.1 365
Q 385.1 366.05 435.2 368.05
L 529.55 370.4 718 371.05
Q 780.8 371.45 812.2 371.75
L 941.7 373.15
Q 953.25 373.45 953.45 373.45
L 971.55 374.3 976.5 374.9
Q 981.05 375.5 987.8 376.85 993.45 378.05 999.05 379.55 1005.4 381.25 1010.2 382.8
L 1015.2 384.45
Q 1016.1 384.9 1016.9 385.55
L 1017.3 385.9 1018.85 387.5 1020.45 390 1020.95 391.1
Q 1021.95 393.25 1022.5 395.85
L 1023.1 400.95
Q 1023.1 402.65 1023 403.45 1022.95 404.3 1022.65 405.9
L 1022 408.3
Q 1021.65 409.35 1021.1 410.45 1020.5 411.55 1019.9 412.3
L 1018.85 413.5 1014.2 416.85
Q 1012 418.15 1009.35 419.3 1007.1 420.25 1004.2 421.25 1001.2 422.25 998.8 422.85
L 952.95 431.35
Q 947.95 432.05 941.35 432.75 937.5 433.2 929.8 433.8
L 847.55 436.2 800.55 436.35
Q 776.15 436.1 753.55 435.25
L 588.75 428.7
Q 577 428.35 565.2 428.1
L 518.05 427.45 482.65 427.6 441.3 429.3 433.9 429.95 398.65 435.2 387.7 437.95 385.4 438.85
Q 383.9 439.45 382.4 440.35 380.7 441.45 379.6 442.4 378.25 443.65 377.25 445.1
L 376.35 446.6 375.6 448.35
Q 375 450.1 374.85 451.85 374.65 453.3 374.85 455.35
L 375.45 458.7 376.5 461.75
Q 377.15 463.35 377.85 464.7 378.55 466 379.5 467.45
L 384.85 474.15 385.4 474.7
Q 387.3 476.5 387.7 476.8
L 390.05 478.8 395.2 482.4 396.25 482.85
Q 396.5 483 397.05 483.15
L 398.6 483.6
Q 400.2 484.1 401.55 484.35 403.25 484.8 407.35 485.65
L 448.2 492.7 471.85 494.35
Q 475.75 494.6 483.65 495
L 542.65 494.85
Q 554.45 494.7 566.25 494.4
L 589.8 493.85
Q 601.65 493.55 613.3 493.4
L 778.15 494.55
Q 821.35 494.95 872.35 496.1
L 872.05 496.1 879.25 498.2 880.2 498.6 880.65 498.85 880.9 498.95 881.1 499.1 882.75 500.15
Q 883.25 500.5 883.5 500.8
L 883.7 500.95 883.95 501.2 884 501.3 884.15 501.45 884.95 502.55 885.05 502.75 885.1 502.95 885.35 503.45 885.35 503.55 885.45 503.75 886.75 504.95 886.5 504.85 886.45 504.8 886.45 504.85 886.5 504.9 886.6 505.1 886.65 505.25 886.7 505.35 886.9 506 887.15 507.85
Q 887.15 507.95 887.3 509.4
L 887.4 513 887.35 513.4 887.35 514.15 887.15 515.6
Q 886.7 518.45 885.2 521.35 883.85 523.9 881.6 526.4
L 880.25 527.8 880.1 527.9 879.65 528.35 879.55 528.5 879.4 528.6 878.95 529 878.8 529.1 876.95 530.55
Q 874.6 532.3 871.5 533.75
L 868.2 535.15 861.3 537.2 859.3 537.6
Q 857.7 538 856.1 538.2
L 790.8 544.8 790.4 544.8 767.35 546.35
Q 765.15 546.5 760.75 546.7
L 727.75 547.6
Q 715.45 547.65 701.3 547.35
L 674.85 547
Q 663.75 546.95 648.35 547.2 635.15 547.45 621.85 547.95
L 579.3 550.4 578.5 550.5 578.05 550.5 555.85 553.4
Q 548.35 554.7 542.8 556.1 539.95 556.75 536.35 557.85
L 532.4 559.15 532.2 559.25 532 559.3 531.6 559.45 531.4 559.55 531.2 559.6 528.65 560.9 527.75 561.5 527.55 561.6 527.4 561.75 527.05 562
Q 525.65 563.05 524.45 564.3
L 523.85 564.9 523.7 565.1 523.55 565.25 523.45 565.4 523.3 565.55 522.25 566.95
Q 521.45 568.15 520.55 570
L 520.45 570.2 520.4 570.4 520.05 571.2 520 571.4 519.9 571.6 519.75 572 519.3 573.7 519.1 574.8 519.1 575 518.95 577.65 519 578.1 519.05 578.3 519.05 578.55
Q 519.25 579.75 519.45 580.3 519.7 581.25 520.1 582
L 520.6 582.95 520.9 583.35 521 583.55 521.15 583.75 521.3 583.9 521.85 584.6 522.05 584.75 522.35 585.05 522.5 585.25 523.4 585.95 525.1 587 526.9 587.8 527.1 587.85 527.95 588.15 533.25 589.35
Q 536.65 589.95 539.9 590.25
L 544.9 590.65
Q 545.45 590.65 545.7 590.7
L 546.55 590.7
Q 546.8 590.75 547.35 590.75
L 559.8 591
Q 565.35 591 573.05 590.65 580.75 590.3 586.3 589.8 598.05 588.8 612.7 588.3
L 665.6 587.45
Q 678.75 587.15 692.05 587
L 705.3 586.9
Q 712.65 586.9 718.5 587.1 724.35 587.25 731.7 587.65 737.65 588 744.85 588.65 758.45 589.95 771.05 592.15
L 777.55 593.4 777.95 593.45 779.1 593.75
Q 779.85 594 780.6 594.35 781.3 594.65 782 595.1
L 782.5 595.4 782.65 595.55 783 595.75 784.65 597.25 784.75 597.4 785.05 597.7 785.15 597.85 785.3 598 785.95 598.95 786.3 599.7
Q 786.65 600.35 786.9 601.15
L 787.05 601.55 787.15 601.75 787.2 601.9 787.25 602.65
Q 787.25 603.4 786.85 603.95
L 786.4 604.55 785 605.6 784.85 605.65 784.45 605.85
Q 781 607.7 778.7 609.2
L 777.35 610.1 775.9 610.8
Q 774.45 611.4 772.8 611.85 770.35 612.6 766.4 613.25 764.1 613.6 759.85 614.1
L 707 615.45
Q 700.35 615.55 693.75 615.75 686.05 616.1 680.55 616.6 677.6 616.8 673.95 617.3 670.25 617.8 667.4 618.45 665.55 618.8 664.2 619.25 662.65 619.7 661.05 620.3
L 658.1 621.9 657.8 622.2 657.65 622.3 656.9 623.1 656.65 623.45 656.55 623.65 656.45 623.8 656.35 624 656.3 624.2 656.2 624.4 656.15 624.65 656.05 625.5 656.2 626.35
Q 656.3 627 656.85 627.9 657.45 628.8 657.85 629.25 658.55 630.05 659 630.45 660.05 631.45 661.55 632.6 662.05 633 664.25 634.45 667.2 636.3 670 637.75 671.95 638.8 675.95 640.7 676.05 640.8 676.05 640.65 676.15 640.55 676 640.55 672.55 638.85 670.1 637.55 667.2 636.05 664.4 634.25 662.35 632.9 661.7 632.35 660.35 631.4 659.15 630.25 658.65 629.8 658.05 629.05 657.45 628.35 657.1 627.75 656.7 627.15 656.45 626.25
L 656.35 625.5 656.45 624.7 656.55 624.3 656.65 624.15 656.7 623.95 656.8 623.8 656.9 623.6 657.05 623.45 657.15 623.3
Q 657.35 622.95 657.7 622.7
L 658 622.4 658.15 622.3 658.3 622.15
Q 659.6 621.3 661.2 620.6 662.65 620.05 664.3 619.55
L 667.5 618.75
Q 670.75 618.05 674 617.7 677.7 617.2 680.55 617 686.7 616.45 693.75 616.2 699.6 616 707 616 710.3 615.95 713.6 616
L 759.9 614.8
Q 762.1 614.6 766.5 614
L 773 612.6
Q 774.1 612.3 776.2 611.5
L 778.1 610.55 778.6 610.2 778.8 610.1 779.15 609.85
Q 782.15 608 784.85 606.6
L 786.3 605.7 786.95 605.1
Q 787.3 604.8 787.55 604.4
L 787.8 604 787.95 603.55
Q 788.1 603.1 788.1 602.65
L 788 601.7 787.9 601.5 787.85 601.3 787.05 599.3 786.2 597.8 785.95 597.45 785.8 597.3 785.7 597.15 785.4 596.8 783.85 595.35 783.5 595.1
Q 783.3 594.9 783.15 594.85
L 783 594.7 782.8 594.6 782.45 594.35
Q 781.9 594 780.95 593.55
L 779.35 592.9 771.2 591.25
Q 758.15 588.95 744.95 587.65 740.55 587.2 731.75 586.6 725.9 586.2 718.55 585.95
L 692.05 585.8
Q 683.3 585.85 665.55 586.15
L 625.9 586.6
Q 621.45 586.6 612.65 586.8 598.95 587.2 586.2 588.2 578.5 588.8 573 589 566.4 589.3 559.8 589.3
L 545.8 588.9
Q 545.25 588.9 545 588.85
L 540.1 588.45
Q 537.2 588.2 533.6 587.6
L 528.45 586.4 528.1 586.25 527.55 586.1 526.45 585.6 526.3 585.55 524.35 584.35 523.25 583.35 522.75 582.75 522.55 582.45 522.4 582.3 522.35 582.15 521.75 581.15
Q 521.35 580.25 521.25 579.75
L 520.9 578.3 520.9 577.95 520.85 577.55 520.85 576.4 520.9 576 520.9 575.65 520.95 575.25 521.05 574.9 521.05 574.7 521.2 574.1 521.2 573.9 521.25 573.75 521.45 572.95 521.6 572.6 521.7 572.25 521.8 572.05 521.85 571.85 522.15 571.15 522.2 570.95 522.3 570.8
Q 523.1 569.1 523.85 568.05
L 524.9 566.65 525.2 566.35 525.3 566.2 525.55 565.9 525.85 565.65
Q 526.85 564.5 528.2 563.55
L 528.5 563.3 528.7 563.2 529.5 562.7 529.65 562.55 529.85 562.5 530.9 561.95 531.05 561.85 531.6 561.6 531.75 561.5 532.1 561.4 532.3 561.3 536.95 559.75
Q 541.15 558.55 543.3 558.05 549.35 556.55 556.15 555.45
L 578.25 552.65 578.65 552.65 579.45 552.55 621.95 550.25
Q 633.7 549.85 648.4 549.6 663.05 549.45 674.8 549.5
L 701.25 550
Q 717.15 550.35 727.75 550.3
L 767.5 549.25
Q 769.7 549.15 770.8 549.05
L 777.4 548.7
Q 778.45 548.6 780.75 548.5
L 790.65 547.8 790.85 547.75 791.1 547.75 846.65 542.5 859.95 540.8 863.25 540.05
Q 863.75 539.95 866.5 539.15
L 872.9 536.7
Q 876.2 535.2 878.9 533.25
L 880.95 531.65 881.1 531.5 881.3 531.35 884.1 528.6
Q 885.4 527.15 886.3 525.9
L 887.15 524.65 887.25 524.45
Q 887.5 524.1 888.15 522.9
L 889.6 519.65
Q 890.2 518.05 890.5 516.2
L 890.7 514.4 890.7 514.15 890.75 513.95 890.75 512.6
Q 890.8 511.5 890.7 509.2
L 890.2 505.2 890.1 504.75 890 504.5 889.95 504.25 889.75 503.75 889.3 502.9 888.8 502.3 888.45 502.05 888.4 501.8 887.6 500.3 886.55 498.95 885.85 498.25 883.3 496.35 882.25 495.75 876.7 493.6 872.7 492.65 872.4 492.65
Q 825.3 491.4 778.2 490.7
L 613.25 488.95
Q 601.5 489.05 589.7 489.25
L 566.15 489.75
Q 550.45 490.05 542.6 490.1
L 490.45 490.35 483.9 490.05
Q 479.75 489.85 472.15 489.35
L 450.25 487.8 408.45 480.45
Q 406.55 480.1 402.75 479.2
L 397.85 477.8 393.35 474.6
Q 391.95 473.5 391.25 472.8
L 389.2 470.9 384 464.5
Q 383.3 463.45 382.65 462.15 382.2 461.35 381.5 459.75
L 380.55 456.65 380.25 454.8
Q 380.15 453.2 380.25 452.4 380.4 451.1 380.75 450.2
L 380.95 449.65 381.45 448.7 381.8 448.2
Q 383 446.4 385.25 445.05 385.8 444.7 387.5 443.9
L 404.1 439.75 434.45 435.6 476.85 433.6 518 433.5
Q 529.8 433.6 541.55 433.8
L 588.55 434.95 753.3 442.15
Q 777.7 443.15 800.45 443.45
L 844.7 443.5 930.3 441.35
Q 935.55 441 942.15 440.35 948.75 439.7 954 438.95
L 973.05 435.85 1000.8 430.45
Q 1003.95 429.65 1006.7 428.75 1009.45 427.85 1012.5 426.55 1015.9 425.05 1018.2 423.7
L 1021.65 421.45 1024.95 418.65 1026.15 417.2
Q 1027.25 415.9 1028.15 414.1 1029.1 412.3 1029.55 410.85
L 1029.85 410 1030.45 407.55
Q 1030.7 406.4 1031 404.2 1031.15 402.3 1031.1 400.8
L 1030.8 396.65 1030.65 395.85
Q 1030.6 395.1 1030.35 394.25 1029.65 390.75 1028.3 387.8
L 1026.7 384.7 1024.05 381.15 1022 379.25
Q 1020.55 378.1 1018.75 377.15
L 1015.45 375.95
Q 1013.15 375.2 1012.65 375.05 1007.95 373.5 1001.15 371.65 995.2 370.05 989.5 368.8 982.55 367.35 977.65 366.7
L 971.6 366
Q 971.3 365.95 970.8 365.95
L 970.05 365.85 965.55 365.6
Q 960.3 365.25 953.7 365.1
L 812.3 362.85
Q 765.1 362.25 718.05 361.8
L 553.2 360.7
Q 541.45 360.65 529.65 360.4
L 506.15 360
Q 494.3 359.8 482.65 359.4
L 435.65 357.75
Q 388.65 355.65 341.4 354.3
L 300.45 353.05 294.85 352.5
Q 291.3 352 289.45 351.65
L 285.7 350.7 284.45 350.25
Q 282.15 349.5 279.35 348.25 277.3 347.4 274.2 345.9
L 264.65 340.85
Q 262.95 339.65 261.55 337.85
L 260.3 336
Q 259.65 334.9 259.35 334.1
L 258.7 332.1 258.35 329.55 258.5 326.95 258.7 326 259.35 324.1 260.35 322.25
Q 261.4 320.65 263.05 319.3 263.8 318.7 264.8 318.1
L 272.2 314.9
Q 276.75 313 282.9 311.05 293.6 307.65 304.95 305.8
L 311.95 304.85 327.8 303.85
Q 335.7 303.5 351.25 303
L 398.4 301.3
Q 405.85 300.95 422 300.15 433.8 299.55 445.55 298.8 457.35 298.15 469.1 297.3
L 516.1 294
Q 570.5 290.25 610.1 287.8 656.9 284.9 704.1 282.4
L 798.15 277.8
Q 821.3 276.75 845.15 275.85
L 1033.6 269.7
Q 1037.55 269.5 1045.45 269
L 1116.2 263
Q 1122.15 262.35 1128.05 261.5
L 1142.85 259.2 1163.6 254.8
Q 1170 253.1 1175.4 251.3 1179.7 249.75 1181.3 249.1 1183.85 248.05 1187.2 246.45
L 1190.15 244.85
Q 1191.35 244.2 1193.1 243.05
L 1198.45 238.9
Q 1203.3 234.75 1207.55 230.2
L 1208.1 229.65 1212.3 224.75 1216.6 218.65 1219.8 212.6 1222.25 205.95 1223.25 200.25 1223.25 196.1
Q 1223 193.8 1222.45 191.8 1221.85 189.55 1220.75 187.6 1219.9 185.9 1218.3 183.9
L 1215.3 180.9 1210.45 177.55 1204.7 174.95 1199.45 173.25
Q 1196.5 172.3 1193.75 173.75 1191 175.2 1190.05 178.15 Z"/>
</g>

<path id="Layer0_0_1_STROKES" stroke="#FFFFFF" stroke-width="15" stroke-linejoin="round" stroke-linecap="round" fill="none" d="
M 96.9 180.45
L 1197.25 180.45"/>
</defs>

<g id="MergedLayer_1">
<g transform="matrix( 1, 0, 0, 1, 0,0) ">
<use xlink:href="#Layer0_0_1_STROKES"/>

<use xlink:href="#Layer0_0_STROKES_1_FILL"/>
</g>
</g>
</svg>
