
<svg xmlns="http://www.w3.org/2000/svg" version="1.1" xmlns:xlink="http://www.w3.org/1999/xlink" preserveAspectRatio="none" x="0px" y="0px" width="640px" height="480px" viewBox="0 0 640 480">
<defs>
<g id="Layer1_0_FILL">
<path fill="#FFFFFF" stroke="none" d="
M 373 362.6
Q 433.85 253.6 464.25 199.1 306.05 203.6 147.75 196.85 187.532421875 275.9650390625 203.95 362.9 205.156640625 352.6296875 198.5 314.3 191.893359375 276.0203125 188.5 267.1 304.1 269.75 417.1 266.9 392.55 310.5 373 362.6 Z"/>
</g>

<g id="Layer0_0_FILL">
<path fill="#000000" stroke="none" d="
M 413.65 221
Q 414.15 219.95 412.75 219.95
L 402.75 219.95
Q 402.05 219.95 401.5 220.25 401 220.5 400.75 221 400.35 221.85 401.05 222.1 401.6 222.3 401.7 222.4 401.8 222.4 401.8 222.6 401.9 222.9 401.6 223.6
L 392.25 243.65
Q 391.9 244.35 391.5 244.7 391.35 244.85 391.2 244.9 391.05 244.95 390.3 245.2 389.35 245.45 389 246.25 388.75 246.75 389 247.05 389.3 247.3 390 247.3
L 400 247.3
Q 401.4 247.3 401.9 246.25 402.3 245.4 401.65 245.2
L 401.1 245
Q 400.6 244.8 401.15 243.65
L 410.5 223.6
Q 411 222.5 411.65 222.3
L 412.4 222.1
Q 413.25 221.85 413.65 221
M 425.4 222.4
Q 425.55 222.3 426.3 222.1 427.2 221.85 427.6 221 428.1 219.95 426.6 219.95
L 416.6 219.95
Q 415.2 219.95 414.7 221 414.3 221.85 414.95 222.1
L 415.5 222.3
Q 415.95 222.5 415.45 223.6
L 411.35 232.35 408.1 232.35 407.2 234.35 410.45 234.35 406.15 243.6
Q 405.6 244.75 404.95 244.9
L 404.2 245.15
Q 403.35 245.4 402.95 246.25 402.45 247.3 403.85 247.3
L 413.85 247.3
Q 415.35 247.3 415.85 246.25 416.25 245.4 415.55 245.15
L 415 244.9
Q 414.5 244.7 415.05 243.6
L 424.35 223.6
Q 424.65 222.9 425.05 222.6 425.25 222.4 425.4 222.4
M 352.15 238.4
Q 352.15 237.75 351.95 237.45 351.8 237.2 351.35 237.2 350.85 237.25 350.4 237.65 350 238 349.85 238.55
L 347.75 245.85
Q 347.25 247.6 348.35 247.6 348.8 247.6 349.3 247.15 349.9 246.6 350.15 246.5 350.35 246.35 350.75 246.35 351 246.35 351.3 246.45 351.5 246.55 352.15 246.9 353.9 247.85 355.55 247.85
L 356.2 245.55
Q 354.75 245.25 353.85 244.2 353 243.15 352.55 241.65 352.1 240.15 352.15 238.4
M 367.8 230.9
Q 366.95 230.25 365.4 229.5 362.75 228.2 362.1 227.7 361.05 227.05 360.7 226.3 360.4 225.55 360.7 224.55 361 223.5 361.85 222.8 362.7 222.1 364 221.75
L 364.65 219.45
Q 361.15 219.6 358.35 221.25 356.35 222.45 354.85 224.4 353.35 226.3 352.7 228.6 351.4 233.05 354.4 235.75 355.05 236.35 355.9 236.8 356.65 237.25 358.8 238.35 360.75 239.35 361.4 240 362.3 241 361.9 242.35 361.55 243.65 360.55 244.4 359.55 245.15 357.7 245.55
L 357.05 247.85
Q 358.3 247.85 359.85 247.5 361.35 247.1 362.75 246.45 365.35 245.25 367.25 243.1 369.1 240.95 369.85 238.35 370.8 234.95 369.2 232.45 368.55 231.5 367.8 230.9
M 366.2 219.55
L 365.6 221.75
Q 367.65 222.25 368.65 223.9 369.1 224.7 369.35 225.75 369.6 226.8 369.5 227.75 369.45 228.3 369.5 228.55 369.55 228.75 369.7 228.9 369.95 229.2 370.35 229.2 370.85 229.2 371.3 228.8 371.75 228.45 371.9 227.85
L 373.8 221.25
Q 374 220.4 373.9 220.05 373.75 219.65 373.25 219.65 372.75 219.65 372.3 220.05
L 371.7 220.65
Q 371.45 220.9 371.05 220.9 370.8 220.9 370.45 220.75 369 220.05 368.25 219.85 367.4 219.6 366.2 219.55
M 329.2 220.25
Q 328.8 219.95 328.05 219.95
L 318.1 219.95
Q 317.35 219.95 317 220.25 316.55 220.5 316.5 221 316.4 221.85 317.15 222.1 317.8 222.3 317.9 222.4 318 222.4 318.1 222.6 318.35 222.9 318.25 223.6
L 315.95 243.65
Q 315.9 244.35 315.6 244.7 315.45 244.85 315.3 244.9 315.2 244.95 314.55 245.2 313.7 245.45 313.6 246.25 313.55 246.75 313.95 247.05 314.25 247.3 315 247.3
L 324.95 247.3
Q 325.7 247.3 326.15 247.05 326.5 246.75 326.55 246.25 326.65 245.45 325.9 245.2 325.25 244.95 325.15 244.9 325.1 244.85 324.95 244.7 324.75 244.35 324.8 243.65
L 327.1 223.6
Q 327.2 222.9 327.45 222.6 327.65 222.4 327.75 222.4 327.85 222.3 328.5 222.1 329.35 221.85 329.45 221 329.5 220.5 329.2 220.25
M 272.05 230.5
L 269.65 227 270.95 241.25
Q 271.2 244.05 269.35 245.1 268.75 245.5 268.6 245.7 268.4 245.9 268.45 246.25 268.55 247.3 270.35 247.3
L 275 247.3
Q 276 247.3 276.3 247.05 276.65 246.75 276.6 246.3 276.55 245.7 275.95 245.4
L 275.35 245.05
Q 274.3 244.45 273.75 243.55 273.2 242.65 273.05 241.25
L 272.05 230.5
M 285.05 247.3
L 290.5 247.3 289.7 238.45 277.35 219.95 268.6 219.95
Q 267.1 219.95 266.75 220.1 266.5 220.25 266.35 220.55 266.2 220.8 266.2 221.15 266.25 221.45 266.45 221.75 266.65 222 266.95 222.1
L 267.75 222.4
Q 268.2 222.5 268.5 222.8 268.8 223.1 269.3 223.9
L 285.05 247.3
M 290.2 222.25
Q 290.95 221.9 291.1 221.7 291.25 221.45 291.2 221.05 291.15 220.6 290.8 220.3 290.45 219.95 289.4 219.95
L 284.4 219.95
Q 283.65 219.95 283.35 220.25 283 220.45 283.05 221 283.1 221.35 283.25 221.6 283.45 221.85 283.9 222.05 285.15 222.7 285.75 223.6 286.3 224.45 286.45 226.15
L 287 231.7 289.4 235.25 288.55 226.15
Q 288.45 224.75 288.75 223.9 289.2 222.8 290.2 222.25
M 244.8 247.3
Q 245.55 247.3 245.9 247.05 246.2 246.75 246.1 246.25 246 245.45 245.15 245.2 244.45 244.95 244.35 244.9 244.25 244.85 244.05 244.7 243.75 244.35 243.65 243.65
L 240.25 223.6
Q 240.15 222.9 240.3 222.6 240.45 222.4 240.55 222.4 240.6 222.3 241.25 222.1 242 221.85 241.85 221 241.75 220.5 241.35 220.25 240.95 219.95 240.2 219.95
L 230.25 219.95
Q 229.5 219.95 229.15 220.25 228.8 220.5 228.9 221 229.05 221.85 229.9 222.1 230.55 222.3 230.7 222.4 230.8 222.4 230.95 222.6 231.3 222.9 231.4 223.6
L 234.8 243.65
Q 234.9 244.35 234.7 244.7 234.6 244.85 234.5 244.9 234.4 244.95 233.8 245.2 233.05 245.45 233.15 246.25 233.25 246.75 233.7 247.05 234.1 247.3 234.85 247.3
L 244.8 247.3
M 202.95 247.3
Q 203.85 247.3 204.2 247.05 204.6 246.75 204.45 246.2 204.25 245.35 203.25 245.1 202.4 244.9 202.2 244.9 202.1 244.8 201.85 244.6 201.45 244.3 201.25 243.5
L 195.1 219.95 185.7 219.95
Q 184.95 219.95 184.65 220.25 184.3 220.5 184.45 221 184.65 221.85 185.55 222.1 186.25 222.3 186.35 222.4 186.45 222.4 186.65 222.6 187 222.9 187.2 223.6
L 192.45 243.65
Q 192.65 244.35 192.45 244.7 192.35 244.85 192.3 244.9 192.2 244.95 191.6 245.2 190.85 245.45 191.1 246.25 191.2 246.75 191.7 247.05 192.1 247.3 192.85 247.3
L 202.95 247.3
M 203.6 225.5
Q 204.25 226.35 204.8 227.3 205.1 227.8 205.4 228.05 205.7 228.25 206.1 228.25 206.6 228.25 206.75 227.95 206.95 227.65 206.75 226.95
L 204.95 219.95 196.9 219.95 197.5 222.3
Q 198.9 222.5 200 222.9 201.1 223.3 202.1 224.1 202.85 224.7 203.6 225.5
M 204 229.6
Q 203.75 228.65 203.55 228.4 203.2 227.9 202.55 227.9 202.05 227.9 201.9 228.2 201.7 228.5 201.75 229.25 201.75 230.35 201.45 231 201 231.65 200 232.25
L 200.6 234.55
Q 201.65 234.8 202.45 235.55 203.3 236.25 204 237.65 204.35 238.3 204.65 238.6 205 238.85 205.5 238.85 206.05 238.85 206.15 238.5 206.25 238.15 206 237.2
L 204 229.6 Z"/>
</g>

<path id="Layer1_0_1_STROKES" stroke="#FFFFFF" stroke-width="1" stroke-linejoin="round" stroke-linecap="round" fill="none" d="
M 147.75 196.85
Q 306.05 203.6 464.25 199.1 433.85 253.6 373 362.6 392.55 310.5 417.1 266.9 304.1 269.75 188.5 267.1 191.893359375 276.0203125 198.525 314.325 205.156640625 352.6296875 203.975 362.925 187.532421875 275.9650390625 147.75 196.85 Z"/>
</defs>

<g id="Layer_1">
<g transform="matrix( 1, 0, 0, 1, 0,0) ">
<use xlink:href="#Layer1_0_FILL"/>

<use xlink:href="#Layer1_0_1_STROKES"/>
</g>
</g>

<g id="Layer_2">
<g transform="matrix( 1, 0, 0, 1, 0,0) ">
<use xlink:href="#Layer0_0_FILL"/>
</g>
</g>
</svg>
