
<svg xmlns="http://www.w3.org/2000/svg" version="1.1" xmlns:xlink="http://www.w3.org/1999/xlink" preserveAspectRatio="none" x="0px" y="0px" width="1280px" height="720px" viewBox="0 0 1280 720">
<defs>
<g id="Layer0_0_FILL">
<path fill="#FFFFFF" stroke="none" d="
M 583 129.6
Q 579.95 126.35 576.8 123.2 560.3 106.7 542.25 93.95 480.25 50 400 50 275.75 50 187.85 137.85 100 225.75 100 350 100 474.25 187.85 562.1 275.75 650 400 650
L 400 647
Q 276.95 647 189.95 560 103 473.05 103 350 103 226.95 189.95 139.95 276.95 53 400 53
L 400 52.5
Q 477.5 52.5 537.85 93.95 557.3 107.3 575 125 579.1 129.1 583 133.35 647.5 203.3 647.5 300 647.5 402.5 575 475 502.5 547.5 400 547.5
L 400 548.5
Q 381.8 548.5 365.2 544.7 345.45 540.15 327.9 530.25 327.75 530.2 327.65 530.1 310.2 520.2 295 505 286.1 496.1 279 486.45 251.5 448.9 251.5 400
L 250 400
Q 250 450.5 279 489 285.7 497.85 293.9 506.05 308.25 520.4 324.6 530.1 326.25 531.05 327.9 532 345.45 541.75 365.2 546.25 381.8 550 400 550 503.55 550 576.8 476.75 650 403.55 650 300 650 200.95 583 129.6 Z"/>
</g>

<path id="Layer0_0_1_STROKES" stroke="#FFFFFF" stroke-width="15" stroke-linejoin="round" stroke-linecap="round" fill="none" d="
M 250 400
Q 250 450.5 279 489 285.7 497.85 293.9 506.05 308.25 520.4 324.6 530.1 326.25 531.05 327.9 532 345.45 541.75 365.2 546.25 381.8 550 400 550 503.55 550 576.8 476.75 650 403.55 650 300 650 200.95 583 129.6 579.95 126.35 576.8 123.2 560.3 106.7 542.25 93.95 480.25 50 400 50 275.75 50 187.85 137.85 100 225.75 100 350 100 474.25 187.85 562.1 275.75 650 400 650"/>
</defs>

<g id="MergedLayer_1">
<g transform="matrix( 1, 0, 0, 1, 0,0) ">
<use xlink:href="#Layer0_0_FILL"/>

<use xlink:href="#Layer0_0_1_STROKES"/>
</g>
</g>
</svg>
