
<svg xmlns="http://www.w3.org/2000/svg" version="1.1" xmlns:xlink="http://www.w3.org/1999/xlink" preserveAspectRatio="none" x="0px" y="0px" width="640px" height="480px" viewBox="0 0 640 480">
<defs>
<g id="Layer0_0_STROKES_1_FILL">
<path fill="#FFFFFF" stroke="none" d="
M 334.55 95.45
L 340.95 98.9
Q 342.3 99.8 342.7 100.2
L 342.85 100.35 343.5 100.9 351.9 109.45
Q 352.1 109.65 352.05 109.65
L 352.7 110.35 368.25 132.15 371.3 137.1 371.4 137.35 371.55 137.6 372.15 139.15 372.2 139.45 377.8 160.7 377.85 161 377.95 161.3 378.7 164.95
Q 379.55 169.65 379.8 174.85 379.9 178.25 379.85 179.9 379.85 182.45 379.7 184.9 379.05 194.55 376.7 205
L 375.8 208.75 372.9 218.45 372.45 219.6
Q 371.35 222.5 370.55 224.3
L 366.35 232.65 363.3 237.4
Q 361.95 239.4 360.35 241.4
L 357.95 244.25 351.25 250.7
Q 350.95 251 350.75 251.1
L 337.3 260.65
Q 333.25 263.15 328.4 265.55 323.85 267.8 319.1 269.6
L 307 273.35 306.05 273.55 305.75 273.65 299.5 274.9
Q 294.05 275.8 289.45 276.15 279.15 277 269.25 275.65
L 259.3 273.75
Q 254.2 272.4 249.7 270.7 240.3 267.05 231.8 261.35
L 223.65 255.3
Q 219.55 251.8 216.35 248.35 212.95 244.7 210.15 240.5 207.45 236.35 205.55 231.75
L 200.8 217.85 198.15 204.45 198.15 204.15 197.7 199.1 197.65 198.75 197.6 195.05 197.65 194.75 197.75 192.25
Q 198.15 187.25 199.1 182.2 200 177.6 201.45 172.25
L 201.65 171.6 201.7 171.3 204.75 161.8 204.9 161.5 206.35 157.65
Q 207.15 155.65 208.4 153 210.65 148.25 213.35 144.25 216.5 139.7 219.75 136.65 221.7 134.9 223.5 133.55
L 233.65 127.65 241.8 123.95 242.1 123.8 252.35 120.55 252.7 120.5 253 120.4 256.1 119.75
Q 266 117.75 276.5 117.6
L 281.65 117.6
Q 283.35 117.6 286.75 117.8 288.55 117.9 291.8 118.3
L 292.75 118.45 293.05 118.45 296.8 119.15
Q 299.35 119.6 301.7 120.35
L 302.9 120.7 311.1 124.1 315.6 126.45 324.5 132.15 325 132.55 325.25 132.7 329.2 136.15 329.4 136.4 331.5 138.7
Q 332.95 140.35 334.55 142.7 335.5 144.1 337.2 147 339.5 151.05 341.5 156.25
L 344.65 165.95
Q 345.85 170.8 346.15 175.95 346.5 181.4 345.85 186.05 345.25 191.1 343.75 195.9
L 342.85 198.65 342.7 198.95 342.05 200.7
Q 341.25 202.7 340 205.35 337.75 209.9 334.8 214.15 331.75 218.45 328.35 222 324.9 225.6 320.75 228.9
L 320.5 229.05 319.25 230.05 312.35 234.75
Q 310.05 236.15 307.9 237.25 305.95 238.3 303.3 239.4
L 298.5 241.05
Q 295.75 241.85 293.6 242.15
L 288.55 242.65 288.2 242.7 286.3 242.75 285.95 242.8 283.4 242.85
Q 279.95 242.85 278.25 242.75
L 273.15 242.3
Q 270.25 241.85 268.25 241.3
L 267.65 241.1 267.35 241.05
Q 267.15 240.95 267.05 240.95
L 263.4 239.65
Q 260.9 238.7 258.7 237.65 256.05 236.45 254.1 235.35
L 250.85 233.4 245.75 229.6
Q 243.85 227.95 242.2 226.05
L 239.25 221.95
Q 237.8 219.55 236.8 217.5
L 234.55 212.85 231.55 205.1 231.5 204.75 231.15 203.55 230.6 200.75 230.5 200.45 230.1 197.3 229.9 193.15
Q 229.9 190.9 230.15 188.05
L 230.45 185.85 230.45 185.5 230.7 183.95 230.8 183.6 231.65 179.2 231.85 178.6 233.45 173.05
Q 234.4 170.5 235.4 168.3
L 235.95 167.15 239 161.95 239.2 161.7 239.55 161.15 244.25 156.05
Q 248 152.8 252.8 150.65 257.1 148.65 262.5 147.35 264.9 146.75 267.55 146.3
L 275.25 145.35 275.55 145.35 275.9 145.3 277.2 145.25 277.5 145.2 282.9 145.35 288.55 146.35 290.65 147 290.95 147.15 291.55 147.35 295 148.95 301.3 153.3
Q 302.45 154.2 303.25 155
L 303.5 155.2 306 157.7 306.25 157.9 309.05 161.4 311.65 165.75 312.5 167.5 313.8 171.1 314 172
Q 314.05 172.05 314.15 172.65
L 314.55 174.5
Q 314.95 177.35 314.9 179.6
L 314.9 180.85 314.85 181.2 314.85 181.5 314.75 182.45 314.75 182.75 314.65 183.4 314.65 183.75 314.35 185.65 314.25 185.95 313.35 189.65
Q 312.45 192.35 311.5 194.45 310.35 196.95 309.1 199
L 308.75 199.55 308.6 199.85 308.4 200.1 308.05 200.65 307.9 200.95 305 204.75 302.7 206.95
Q 300.7 208.65 298.55 209.9 296.15 211.25 293.9 212.1
L 290.85 213.15 290.55 213.2 289.95 213.4 289.6 213.45 289 213.6
Q 286.15 214.2 283.95 214.2 281.45 214.25 278.85 213.8 276.3 213.35 273.9 212.45
L 271.25 211.3 270.95 211.2 268.1 209.65 263.5 206.2 261.3 203.85
Q 260.55 202.95 259.8 201.8
L 258.55 199.55
Q 257.5 197.2 256.9 194.7 256.85 194.6 256.45 192.2
L 256.45 191.85 256.25 189.6
Q 256.15 186.7 256.5 184.5 256.9 181.85 257.85 179.55 258.8 177.15 260.35 175.1 261.8 173.05 263.9 171.35
L 265.95 169.8
Q 266.95 169.1 268.15 168.45 270.55 167.1 272.85 166.4 275.35 165.65 277.95 165.5 280.6 165.35 283.1 165.7
L 283 165.65
Q 285.55 166.7 285.8 166.85 287.5 167.65 288.5 168.3 289.7 169 290.9 170.05
L 292 171.1 292.1 171.25 292.75 171.95 293.75 173.55
Q 294.15 174.15 294.35 174.9 294.55 175.35 294.8 176.3
L 294.9 177.05 294.9 177.15 294.95 177.25 294.95 177.65 295 177.8 295.05 178.55 295 180.85
Q 294.85 182.3 294.4 183.75 293.9 185.25 293.15 186.55
L 291.4 189
Q 291.1 189.4 290.4 190.1
L 290.35 190.2 290.25 190.25 290.1 190.35 290 190.5 289.85 190.65 289.25 191.1 288 191.9 287.8 191.95 287.65 192.05 286.95 192.35 285.15 192.75 283.65 192.8 282.15 192.6
Q 281.65 192.55 280.65 192.25
L 279.75 192 279.55 191.9 279.2 191.8 277.8 191.15
Q 276.51875 190.55859375 275.2 189.7
L 274.85 189 274.8 188.8 274.7 188.6 274.6 188.2 274.5 188 274.25 186.8 274.25 186.6 274.2 186.4 274.2 185.6 274.3 185.15 274.3 184.95 274.4 184.75 274.4 184.7 274.45 184.6 274.5 184.4 274.8 183.85 274.8 183.8 274.9 183.7 275.15 183.35 275.2 183.25 275.3 183.2 275.75 182.75 276.25 182.4 277.9 181.55 278.1 181.5 278.3 181.4 280.95 180.75
Q 281.1 180.75 281 180.65 281 180.5 280.9 180.6
L 279.25 180.9 278.25 181.2 278.05 181.3 277.85 181.35 277.65 181.45 277.25 181.6 276.1 182.2 275.75 182.45 275.6 182.6 275.25 182.85 275.1 183.05 274.95 183.2 274.7 183.55 274.6 183.65 274.6 183.7 274.35 184.1 274.3 184.3 274.15 184.6 274.15 184.7 274.05 184.9 274.05 185.1 273.95 185.55 273.95 186.65 274 186.85 274 187.05 274.3 188.3 274.4 188.5 274.5 188.9 274.7 189.3 274.75 189.5 274.95 189.9 275 189.95
Q 276.3 190.8 277.7 191.45
L 279.1 192.1 279.45 192.2 279.65 192.3 280.55 192.6 283.6 193.15 285.15 193.1
Q 285.95 193.05 286.7 192.8
L 287.1 192.7 288 192.3 288.15 192.25
Q 288.85 191.9 289.5 191.4
L 289.8 191.2 289.95 191.05 290.1 190.95 290.4 190.65 290.55 190.55 291.75 189.25
Q 291.95 189.05 292.7 188.05
L 293.55 186.75
Q 294.4 185.2 294.8 183.9 295.3 182.6 295.45 180.9 295.55 180.35 295.55 179.3
L 295.5 177.55 295.45 177.4 295.45 177.1 295.4 177 295.3 176.2
Q 295.15 175.45 294.85 174.7 294.45 173.75 294.25 173.25
L 293.85 172.6 292.55 170.85 292.4 170.75 292.3 170.6 291.3 169.65
Q 290.3 168.75 288.8 167.8 287.9 167.2 286.1 166.3
L 283.25 165.1 283.15 165.05
Q 280.65 164.7 277.9 164.85 275.2 165 272.65 165.75 270.15 166.5 267.75 167.8 267 168.2 265.5 169.2
L 261.45 172.55
Q 260.8 173.2 259.7 174.6 258.2 176.55 257.05 179.2 256.05 181.55 255.65 184.35 255.25 186.6 255.35 189.65
L 255.45 191.65 255.95 194.95
Q 256.6 197.65 257.65 200
L 258.95 202.35
Q 259.4 203.1 260.5 204.5 261.25 205.45 262.3 206.5
L 264.3 208.3
Q 264.95 208.85 266.45 209.85
L 267.55 210.6 267.85 210.75 268.4 211.1 273.5 213.55
Q 276.15 214.5 278.65 215 281.3 215.45 283.95 215.45 286.6 215.4 289.25 214.85
L 291.85 214.15 292.15 214.1 293.1 213.75
Q 293.2 213.7 294.35 213.3 296.85 212.4 299.2 211.05 301.55 209.7 303.6 208
L 304.1 207.55 308.15 203.1 308.3 202.8
Q 308.4 202.75 308.5 202.55
L 309.65 200.9 309.8 200.6 310 200.35 310.35 199.75
Q 311.8 197.3 312.85 195.1 314.05 192.4 314.75 190.1
L 316.15 184.25 316.15 183.95 316.45 181.25 316.5 179.6
Q 316.55 177.15 316.15 174.25
L 316.05 173.6 314.4 167.75 314 166.85 313.9 166.55 313.45 165.6 310.45 160.4 306.15 155.25 305.9 155.05 305.45 154.55 299.85 149.85 296.2 147.5 291.9 145.45 289.05 144.5 288.7 144.45 288.4 144.35 283.1 143.4 277.4 143.2 277.05 143.25 275.75 143.3 275.4 143.35 275.1 143.35 272.45 143.6
Q 268.95 144 267.2 144.3 265 144.6 262 145.3 256.6 146.55 251.9 148.65 249.35 149.8 247.15 151.2 244.9 152.55 242.75 154.35
L 238.95 158.2 238.75 158.5 238.5 158.75 237.9 159.5 233.25 167.3
Q 232.4 169.1 231.2 172.25
L 230.25 175.1 230.2 175.4 227.9 185.8 227.7 187.5 227.7 187.8
Q 227.4 190.5 227.4 193.15
L 227.8 199.85 228.7 204.5 232.1 213.9
Q 233.1 216.2 234.35 218.75 235.85 221.6 236.9 223.4 238 225.1 238.4 225.7
L 239.85 227.6 240.1 227.85
Q 241.8 229.9 243.9 231.7
L 244.9 232.6 249.25 235.8 249.85 236.15 250.1 236.35 250.4 236.5 251.25 237.05 251.55 237.2 252.7 237.9
Q 255.5 239.45 257.45 240.35 259.7 241.4 262.35 242.45
L 267.45 244.2
Q 269.95 244.9 272.75 245.3 274.5 245.55 278.1 245.85 279.85 245.95 283.4 245.95
L 288.4 245.85 288.7 245.8 294.1 245.35
Q 296.75 244.9 299.4 244.15
L 304.5 242.4
Q 306.85 241.45 309.4 240.2 311.9 238.95 314.1 237.6 316.7 236.05 318.55 234.7
L 322.35 232 322.85 231.55
Q 327.1 228.25 330.85 224.45 334.7 220.45 337.7 216.2 340.9 211.7 343.25 207 344.05 205.4 345.45 202.1
L 345.8 201.15 345.95 200.85 347.3 197.05
Q 348.95 191.6 349.6 186.5 350.3 181.35 350 175.7 349.7 170.1 348.45 165
L 347.4 161.1 347.35 160.8 345.25 154.8
Q 343.15 149.35 340.75 145.05 339.55 142.85 337.95 140.4 336.55 138.3 334.7 136.05
L 330.45 131.55 327.75 129.35
Q 327.7 129.25 327.5 129.15
L 326.7 128.55
Q 325 127.3 322.3 125.55
L 317.7 122.75
Q 315.7 121.55 313 120.2 310.75 119.05 308.1 117.95
L 306.85 117.45 306.5 117.35 306.2 117.2 303 116.15
Q 300.35 115.3 297.7 114.8
L 292.4 113.85
Q 290.65 113.6 287.05 113.3 285.35 113.15 281.75 113.05
L 276.4 113
Q 265.3 113.15 255.2 115.1
L 251.55 115.85 251.25 115.95 250.3 116.15 240.3 119.3 240 119.45 238.45 120.05 238.15 120.2 237.85 120.3 226.15 126.1 224.4 127.15 224.1 127.3 223 128 222.7 128.15 220.65 129.5
Q 218.65 130.9 216.3 133 212.6 136.45 209.15 141.35 206.1 145.8 203.75 150.75 202.5 153.3 201.55 155.65
L 196.6 169.85 196.55 170.15 196.35 170.8
Q 194.85 175.9 193.8 181.15 192.75 186.5 192.3 191.85
L 192.1 195.95 193.05 208.1
Q 193.3 209.9 194 213.4
L 196.45 223.2 200.2 233.9
Q 202.25 239 205.3 243.7 208.15 248.15 211.95 252.35 215.45 256.25 219.8 259.85
L 228.4 266.35
Q 237.4 272.45 247.45 276.45 252.25 278.4 257.75 279.8
L 260.4 280.45 260.7 280.55 263.4 281.1 263.75 281.2 268.35 281.95
Q 273.75 282.7 279.15 282.85 284.1 283.05 289.95 282.65 295.1 282.3 300.65 281.35
L 307.6 280 307.9 279.9 318.9 276.75
Q 319.5 276.6 320.2 276.3
L 321.45 275.85
Q 326.8 273.85 331.35 271.65 336.6 269.15 340.85 266.5
L 341.45 266.2 343.7 264.75 344 264.6 355.75 256.1 362.95 249.2 365.85 245.85
Q 367.75 243.5 369.15 241.45
L 375.15 231.5 380.85 217.7 382.85 210.9 382.9 210.55 383.85 206.65
Q 386.5 195.5 387.2 185.4 387.4 181.8 387.4 180 387.5 176.95 387.35 174.55 387.1 168.85 386.25 163.65
L 386.2 163.3 386.1 162.95 385.95 161.95 385.85 161.6 379.4 136.1 378.25 133.4 374.8 127.7 358.75 104.95 353.9 99.6 348.25 94.15 347.95 93.9
Q 346.65 92.8 345.45 92.05 344.15 91.15 343 90.55
L 338.1 88
Q 335.3 86.65 333.2 85.75 328.8 83.9 323.3 81.8
L 318.35 79.95
Q 314.85 78.75 313.1 78.25
L 309.15 77.15 302.5 75.7
Q 292.7 73.9 281.05 73.5
L 263.3 73.85 254.55 74.65 254.25 74.65 248.85 75.5
Q 246.85 75.85 243.5 76.6
L 238.2 77.95
Q 233.15 79.4 227.9 81.4 222.9 83.3 217.95 85.75 208.55 90.3 199.3 96.6 195.65 99.05 190.55 102.9
L 182.25 109.95
Q 178.5 113.4 174.7 117.95 171.2 122.25 168.1 126.8 162.25 135.75 158.05 146.2 156.1 150.85 154.4 156.45
L 151.95 165.6 149.15 180.85 148.3 188.15
Q 148.1 190.2 149.4 191.8 150.7 193.45 152.75 193.65 154.8 193.9 156.4 192.55 158.05 191.25 158.25 189.2
L 159 182.2 161.6 167.5 163.8 159.3
Q 165.35 154.05 167.05 149.8 170.8 140.2 176.1 132.05 178.55 128.25 182 124.05 185.25 120.1 188.75 116.75
L 192.65 113.25
Q 192.7 113.15 192.9 113.05
L 196.35 110.25
Q 200.8 106.8 204.5 104.25 213.3 98.2 221.95 93.95 227.15 91.4 231.2 89.85 236.1 87.85 240.7 86.6
L 243.1 85.9 243.4 85.85 245.55 85.3
Q 247.9 84.7 250.45 84.25
L 255.7 83.4 256 83.4 263.6 82.65 263.9 82.65 264.2 82.6 280.8 82.2
Q 291.4 82.45 300.95 84.1
L 306.5 85.25 306.8 85.35 307.1 85.4 309.55 86.05 309.85 86.1 320.35 89.65
Q 325.45 91.55 329.9 93.4 331.9 94.2 334.55 95.45 Z"/>
</g>
</defs>

<g id="Layer_1">
<g transform="matrix( 1, 0, 0, 1, 0,0) ">
<use xlink:href="#Layer0_0_STROKES_1_FILL"/>
</g>
</g>
</svg>
