
<svg xmlns="http://www.w3.org/2000/svg" version="1.1" xmlns:xlink="http://www.w3.org/1999/xlink" preserveAspectRatio="none" x="0px" y="0px" width="640px" height="480px" viewBox="0 0 640 480">
<defs>
<path id="Layer0_0_1_STROKES" stroke="#ffffff" stroke-width="1" stroke-linejoin="round" stroke-linecap="round" fill="none" d="
M 30.1 288.35
Q 43.4 278.25 52.4 274.4 65.7 268.65 76.6 272.35 80.4 273.6 87 277.55 93.7 281.65 97.25 282.85 104.95 285.65 114.6 284 120.95 282.9 132.25 278.8 144.95 274.15 150.1 272.9 160.1 270.45 168 272 172.05 272.8 178.85 275.6 186.3 278.65 189.6 279.5 198 281.75 206.85 279.95 215.6 278.15 222.6 272.85 227.75 268.8 227.95 268.65 231.15 266.5 234 266.35 236.8 266.2 240.15 268 240.25 268.05 245.75 271.6 254 276.95 264 278.55 274.05 280.1 283.5 277.5 290.4 275.65 303.95 269.65 316 265.15 324.35 267.5 328.05 268.45 334.1 272.05 340.5 275.8 343.75 276.85 350 278.8 358.1 277.25 363.25 276.3 372.25 273 385.95 267.85 393.5 266.35 405.55 263.85 415 266.6 418.6 267.6 427.9 272.05 435.85 275.85 441 276.5 447.25 277.15 455.1 274.65 457.75 273.8 468.6 269.35 492.15 259.85 507.35 266.75 509 267.5 514.7 270.85 519.15 273.5 522.25 274.35 530.9 276.7 544.2 269.95 547.8 268.15 555.05 264.4 561.4 261.4 566.35 260.6 572.8 259.55 581.55 261.35 583.2 261.7 596.8 265.4 605.9 267.85 611.5 267.95 619.25 268.1 625 264.35"/>
</defs>

<g id="Layer_1">
<g transform="matrix( 1, 0, 0, 1, 0,0) ">
<use xlink:href="#Layer0_0_1_STROKES"/>
</g>
</g>
</svg>
